<?xml version="1.0" encoding="utf-8"?>
<!-- Generator: Adobe Illustrator 21.0.2, SVG Export Plug-In . SVG Version: 6.00 Build 0)  -->
<svg version="1.1" id="Layer_1" xmlns="http://www.w3.org/2000/svg" xmlns:xlink="http://www.w3.org/1999/xlink" x="0px" y="0px"
	 viewBox="0 0 44 28" style="enable-background:new 0 0 44 28;" xml:space="preserve">
<style type="text/css">
	.st0{fill:#D95D3E;}
	.st1{fill:#B24241;}
	.st2{fill:#B91319;}
</style>
<g>
	<g>
		<g>
			<path class="st0" d="M4.539,16.311c-0.5,0-0.974,0-1.449,0c-0.002-0.014-0.004-0.028-0.005-0.042
				c0.038-0.018,0.074-0.039,0.114-0.054c0.4-0.152,0.8-0.306,1.202-0.452c0.077-0.028,0.114-0.057,0.11-0.142
				c-0.007-0.174,0-0.349-0.002-0.523c-0.001-0.061-0.013-0.122-0.023-0.202c-0.12,0.042-0.22,0.072-0.317,0.112
				c-0.428,0.179-0.857,0.356-1.281,0.543c-0.139,0.061-0.22,0.049-0.322-0.072c-0.262-0.31-0.608-0.435-1.022-0.349
				c-0.444,0.093-0.79,0.305-0.881,0.762c-0.056,0.282-0.082,0.57-0.111,0.857c-0.014,0.137-0.002,0.276-0.002,0.426
				c1.349-0.027,2.676-0.054,3.99-0.081C4.539,16.833,4.539,16.592,4.539,16.311z M2.258,16.368
				c-0.006,0.024-0.046,0.055-0.071,0.056c-0.305,0.004-0.61,0.003-0.926,0.003c-0.029-0.334,0.164-0.597,0.465-0.625
				C2.023,15.774,2.329,16.098,2.258,16.368z"/>
			<path class="st0" d="M1.103,19.661c0.418,0.224,0.862,0.312,1.327,0.339c0.644,0.036,1.25-0.09,1.786-0.446
				c0.107-0.071,0.211-0.186,0.252-0.301c0.185-0.521,0.108-0.999-0.413-1.32c-0.432-0.266-0.909-0.377-1.419-0.39
				c-0.132,0.013-0.265,0.022-0.397,0.04c-0.436,0.059-0.849,0.172-1.21,0.43C0.438,18.432,0.479,19.327,1.103,19.661z M1.47,18.495
				c0.155-0.149,0.357-0.205,0.565-0.237c0.206-0.031,0.415-0.045,0.686-0.074c0.214,0.034,0.486,0.07,0.755,0.125
				c0.189,0.039,0.314,0.165,0.354,0.345c0.039,0.174-0.054,0.32-0.2,0.401c-0.174,0.096-0.365,0.191-0.56,0.218
				c-0.445,0.063-0.889,0.011-1.311-0.147c-0.108-0.041-0.211-0.113-0.295-0.191C1.322,18.802,1.329,18.631,1.47,18.495z"/>
			<path class="st0" d="M4.41,21.483C4,21.487,3.59,21.48,3.181,21.482c-0.102,0-0.143-0.033-0.139-0.135
				c0.008-0.204,0.005-0.408,0.009-0.612c0.001-0.069-0.013-0.115-0.101-0.114c-0.196,0.003-0.392,0.003-0.588,0.002
				c-0.101,0-0.136,0.041-0.134,0.14c0.004,0.217-0.008,0.434-0.01,0.651c-0.001,0.069-0.025,0.098-0.101,0.099
				c-0.182,0.001-0.365,0.008-0.547,0.017c-0.104,0.005-0.141-0.035-0.14-0.135c0.005-0.289,0.001-0.578,0.001-0.868
				c0-0.07,0-0.141,0-0.227c-0.226,0.011-0.429,0.028-0.633,0.028c-0.129,0-0.167,0.043-0.162,0.165
				c0.014,0.421,0.019,0.842,0.025,1.263c0.003,0.203,0,0.406,0,0.61c1.319,0,2.599,0,3.894,0c0-0.261-0.006-0.499,0.003-0.736
				C4.562,21.517,4.529,21.481,4.41,21.483z"/>
		</g>
		<g>
			<path class="st0" d="M11.619,18.662c-0.003,0.32-0.005,0.64,0.005,0.96c0.022,0.671,0.192,1.284,0.503,1.825
				c0.651,1.129,1.567,1.689,2.789,1.668c1.711-0.007,3.269-1.199,3.473-2.655c0.155-1.11,0.139-1.319,0.105-2.576
				c-0.013-0.485-0.14-1.027-0.375-1.609c-0.401-0.993-1.021-1.618-1.895-1.909c-1.09-0.364-2.284-0.216-3.193,0.397
				c-0.687,0.462-1.137,1.145-1.268,1.92c-0.108,0.644-0.148,0.9-0.149,1.342l0.007,0.001L11.619,18.662z M13.455,17.318
				c0.086-0.437,0.272-0.858,0.522-1.188c0.247-0.324,0.614-0.523,1.005-0.543c0.391-0.012,0.773,0.139,1.048,0.438
				c0.329,0.359,0.522,0.832,0.677,1.248c0.111,0.298,0.129,0.61,0.147,0.913l0.009,0.142c0.022,0.331,0.013,1.262-0.075,1.856
				c-0.036,0.237-0.164,0.458-0.284,0.642c-0.319,0.487-0.741,0.733-1.256,0.733c-0.024,0-0.048-0.001-0.072-0.001
				c-0.598-0.027-1.056-0.326-1.327-0.864c-0.436-0.87-0.505-1.788-0.515-2.651C13.329,17.587,13.338,17.909,13.455,17.318z"/>
			<path class="st0" d="M30.907,22.956c0.002-0.189-0.005-0.402-0.012-0.615c-0.006-0.205-0.013-0.41-0.009-0.614
				c0.001-0.07-0.011-0.101-0.017-0.108c-0.001-0.001-0.017-0.027-0.165-0.026c-0.317,0.004-0.782,0.005-1.254,0.003
				c-0.52-0.001-1.043,0-1.391,0.005c-0.161,0.002-0.349-0.011-0.475-0.136c-0.087-0.087-0.128-0.205-0.124-0.362
				c0.013-0.575,0.013-1.164,0.001-1.801c-0.003-0.152,0.036-0.267,0.12-0.352c0.121-0.123,0.302-0.14,0.445-0.141
				c0.351-0.002,1.389-0.024,1.755-0.058c0.016-0.002,0.047-0.016,0.071-0.03c0.013-0.335,0.011-0.669,0.009-0.992l0-0.116
				l-0.351-0.001c-0.554-0.001-1.233-0.002-1.566,0.003c-0.126,0.002-0.31-0.008-0.435-0.13c-0.083-0.081-0.124-0.196-0.123-0.339
				c0.002-0.282-0.009-0.565-0.024-0.846c-0.009-0.171,0.034-0.306,0.126-0.402c0.139-0.146,0.35-0.163,0.497-0.164
				c0.333-0.002,0.849-0.014,1.353-0.026c0.447-0.01,0.324-0.021,0.619-0.024c0.095-0.001,0.13-0.014,0.139-0.019
				c-0.001-0.003,0.002-0.022-0.002-0.062c-0.022-0.236-0.153-0.454-0.168-0.69l-0.086-0.313c-0.007-0.098-0.16-0.219-0.173-0.247
				c-0.016,0.004-0.174,0.005-0.301,0.006l-0.568,0.008c-1.012,0.006-2.112,0.012-2.935,0.012c-0.001,0-0.001,0-0.002,0
				c-0.091,0-0.121,0.013-0.126,0.016c0.002,0-0.006,0.021-0.006,0.083c-0.025,2.055-0.053,4.109-0.081,6.164l-0.032,2.356
				c0,0.011,0.001,0.022,0.002,0.034l0.673,0.001c1.491,0.001,3.267,0.001,4.588-0.01C30.858,23.021,30.898,22.977,30.907,22.956z"
				/>
			<path class="st0" d="M6.633,22.806c0,0.038,0.003,0.077,0.006,0.116h4.685l0.001-0.197c0.001-0.45,0.002-0.888-0.011-1.325
				c-0.032-0.016-0.075-0.031-0.094-0.032c-0.45-0.011-0.901-0.011-1.351-0.011l-0.566-0.001c-0.643-0.003-0.77-0.058-0.779-0.679
				C8.51,19.762,8.495,18.851,8.48,17.94c-0.018-1.089-0.037-2.179-0.051-3.268c-0.001-0.05-0.007-0.069-0.009-0.074
				c-0.001-0.002-0.029-0.009-0.105-0.009c-0.001,0-0.003,0-0.004,0H8.195c-0.455,0.002-0.923,0.003-1.384-0.026
				c-0.174-0.011-0.21,0.019-0.211,0.021c-0.003,0.002-0.026,0.028-0.024,0.168c0.02,1.949,0.032,3.898,0.043,5.847L6.633,22.806z"
				/>
			<path class="st0" d="M25.159,14.396l-0.024,0.116c-0.043,0.209-0.083,0.41-0.13,0.61c0,0-2.105,7.808-2.859,7.856
				c-0.898,0.032-3.849-8.532-3.849-8.532l0.761,0c0.665-0.001,0.751-0.002,1.341,0.008c0.031,0.007,0.096,0.049,0.106,0.058
				c0.083,0.347,0.153,0.695,0.224,1.043c0.056,0.274,0.111,0.547,0.173,0.821c0.169,0.75,1.196,3.103,1.196,3.103
				c0.278-1.182,0.912-3.698,1.172-4.879c0.034-0.153,0.051-0.225,0.494-0.211L25.159,14.396z"/>
		</g>
		<g>
			<path class="st0" d="M37.528,13.356c-0.009-0.005-0.019-0.009-0.028-0.014c-0.06-0.031-0.129-0.056-0.203-0.078
				c-0.061-0.018-0.125-0.034-0.192-0.05c0.571-0.746,1.126-1.451,1.632-2.092c2.323-2.944,3.857-4.89,3.247-6.107
				c-0.434-0.68-0.914-0.79-1.24-0.763c-0.395,0.033-0.787,0.282-1.143,0.712c-0.324-0.567-0.884-0.901-1.428-1.035
				c-0.339-0.083-0.708-0.095-1.052-0.026c-0.004,0.013-0.009,0.025-0.013,0.038C37.09,4,37.071,4.064,37.053,4.129
				c0.169-0.044,0.346-0.067,0.526-0.067c0.185,0,0.37,0.023,0.547,0.066c0.517,0.127,1.05,0.455,1.337,1.017
				c-0.201,0.278-0.388,0.616-0.555,1.006c-0.306,0.611-0.234,1.153-0.038,1.397c0.1,0.125,0.236,0.177,0.372,0.144
				c0.263-0.066,0.47-0.43,0.583-1.025c0.115-0.605,0.051-1.103-0.122-1.503c0.334-0.43,0.698-0.678,1.06-0.707
				c0.388-0.034,0.751,0.199,1.046,0.66c0.546,1.092-1.038,3.101-3.23,5.88c-0.524,0.664-1.099,1.394-1.692,2.17
				c-0.075-0.016-0.151-0.034-0.226-0.055c-0.064-0.017-0.127-0.035-0.189-0.057c-0.008-0.003-0.014-0.006-0.022-0.009
				c-0.052-0.019-0.101-0.04-0.148-0.062c-0.236-2.469-0.579-6.795-0.217-7.997c0.116-0.383,0.393-0.635,0.736-0.779
				c0.022-0.085,0.045-0.166,0.068-0.243c-0.463,0.149-0.849,0.46-1,0.963c-0.37,1.228-0.044,5.444,0.195,7.944
				c-0.099-0.055-0.184-0.105-0.261-0.138c-0.076-0.032-0.144-0.046-0.207-0.028c-0.112,0.032-0.21,0.162-0.32,0.471
				c-0.239,0.669-0.498,1.335-0.691,2.018c-0.455,1.607-0.591,3.153-1.437,4.645c-0.478,0.844-1.019,1.762-1.207,2.738
				c-0.159,0.827,0.209,1.657,0.851,1.826c1.03,0.271,1.67-0.994,1.998-2.068c0.177-0.581,0.299-1.176,0.402-1.768
				c0.153-0.883,0.443-1.747,0.804-2.575c0.072-0.166,0.148-0.33,0.225-0.492c0.106-0.221,0.225-0.439,0.345-0.656
				c0.162-0.295,0.323-0.591,0.45-0.897c0.257-0.62,0.429-1.281,0.655-1.914c0.092-0.257,0.076-0.426-0.008-0.544
				C37.645,13.436,37.592,13.392,37.528,13.356z M39.623,6.628c-0.111,0.586-0.296,0.831-0.432,0.865
				c-0.058,0.015-0.113-0.01-0.163-0.073c-0.131-0.163-0.222-0.611,0.064-1.183c0.142-0.334,0.299-0.626,0.464-0.873
				C39.68,5.71,39.718,6.129,39.623,6.628z"/>
		</g>
	</g>
	<g>
		<g>
			<path class="st1" d="M17.345,8.363c-0.003,0.377-0.006,0.753,0.006,1.13c0.026,0.789,0.226,1.511,0.592,2.147
				c0.766,1.328,1.843,1.988,3.281,1.963c2.013-0.008,3.846-1.41,4.086-3.123c0.183-1.305,0.164-2.635,0.123-4.114
				c-0.016-0.571-0.164-1.208-0.441-1.893c-0.472-1.168-1.202-1.903-2.23-2.246c-1.283-0.428-2.687-0.254-3.757,0.467
				c-0.808,0.544-1.337,1.346-1.491,2.258c-0.128,0.758-0.174,2.143-0.176,2.663l0.009,0.001L17.345,8.363z M19.504,5.698
				c0.101-0.514,0.319-1.01,0.615-1.397c0.291-0.381,0.722-0.615,1.182-0.639c0.46-0.014,0.91,0.164,1.233,0.515
				c0.388,0.422,0.614,0.979,0.796,1.468c0.13,0.35,0.152,0.718,0.173,1.074l0.01,0.168c0.026,0.39,0.016,2.569-0.088,3.267
				c-0.042,0.279-0.192,0.539-0.335,0.755c-0.375,0.573-0.871,0.862-1.478,0.862c-0.028,0-0.056-0.001-0.085-0.001
				c-0.703-0.031-1.243-0.383-1.561-1.017c-0.513-1.024-0.594-2.103-0.606-3.119C19.356,7.098,19.366,6.393,19.504,5.698z"/>
			<path class="st1" d="M29.63,9.707c0.068,0.086,0.134,0.173,0.188,0.266c0.189,0.323,0.376,0.649,0.563,0.975
				c0.314,0.546,0.627,1.093,0.954,1.633c0.534,0.882,0.62,0.917,1.128,0.925c0.103,0.003,0.264,0.001,0.451-0.001
				c0.265-0.003,0.578-0.006,0.845,0c0.005-0.006,0.017-0.148-0.079-0.443c-0.262-0.729-1.832-3.944-2.426-4.915
				c-0.2-0.328-0.215-0.622-0.047-0.953c0.574-1.135,1.088-2.159,1.566-3.195c0.049-0.106,0.102-0.212,0.155-0.318
				c0.216-0.432,0.419-0.839,0.362-1.294c-0.019-0.15-0.019-0.166-0.195-0.166c-0.404,0.005-0.823,0.012-1.236-0.013
				c-0.285-0.01-0.375,0.075-0.457,0.249c-0.507,1.077-1.026,2.15-1.544,3.222L29.6,6.211c-0.041,0.085-0.093,0.166-0.146,0.247
				L29.315,6.68L28.89,6.606l-0.033-0.324c-0.013-0.108-0.025-0.217-0.027-0.325c-0.026-1.234-0.049-2.468-0.07-3.702
				c-0.001-0.061-0.01-0.082-0.011-0.085c0,0,0,0,0,0c-0.002,0-0.037-0.025-0.151-0.016c-0.553,0.018-1.126,0.021-1.755,0.008
				c-0.092-0.003-0.126,0.008-0.138,0.014c0.002,0.005-0.003,0.031-0.002,0.086c0.051,3.019,0.095,6.039,0.135,9.058
				c0.007,0.546,0.005,1.093,0.003,1.655l-0.001,0.548l0.448-0.002c0.207-0.001,0.408-0.002,0.607-0.002
				c0.293,0,0.579,0.003,0.865,0.012c0.183,0.004,0.226-0.026,0.228-0.028c0,0,0.015-0.03,0.01-0.135
				c-0.036-0.788-0.056-1.643-0.063-2.688c-0.001-0.224,0.028-0.442,0.055-0.654c0.012-0.093,0.024-0.186,0.034-0.279l0.02-0.199
				l0.43-0.047L29.63,9.707z"/>
			<path class="st1" d="M10.11,13.338c0.942,0.295,3.29,0.79,4.749-1.041c0.915-1.15,1.39-2.471,1.454-4.039l-0.04-0.358
				c-0.03-0.272-0.059-0.545-0.106-0.815c-0.247-1.412-0.688-2.437-1.431-3.323c-0.677-0.809-1.813-1.286-3.019-1.286
				c-0.108,0-0.217,0.004-0.327,0.011C10.25,2.569,9.307,3.065,8.804,3.846C8.743,3.94,8.677,4.035,8.612,4.129
				c-0.186,0.268-0.361,0.52-0.435,0.776C7.899,5.876,7.661,6.751,7.577,7.63c-0.181,1.878,0.346,3.572,1.566,5.033
				C9.401,12.973,9.772,13.232,10.11,13.338z M10.457,5.431c0.108-0.232,0.287-0.468,0.531-0.702
				c0.766-0.734,1.735-0.684,2.412,0.123c0.523,0.625,0.674,1.35,0.794,2.1c0.051,0.316,0.075,0.635,0.097,0.943
				c0.01,0.136,0.02,0.272,0.032,0.408l-0.012,0.001c0.018,0.499-0.401,2.364-0.428,2.464c-0.173,0.639-0.712,1.078-1.48,1.206
				c-0.106,0.018-0.211,0.027-0.314,0.027c-0.541,0-1.026-0.244-1.389-0.704c-0.293-0.371-0.646-0.866-0.778-1.404
				C9.565,8.453,9.745,6.951,10.457,5.431z"/>
			<path class="st1" d="M6.972,11.358C6.6,11.152,6.2,10.958,5.796,10.762l-0.32-0.156c-0.066,0.056-0.13,0.113-0.194,0.169
				c-0.225,0.196-0.444,0.388-0.68,0.563c-0.353,0.261-0.733,0.36-1.076,0.276c-0.292-0.073-0.534-0.271-0.699-0.574
				C2.53,10.496,2.347,9.903,2.31,9.37c-0.073-1.064-0.061-2.145-0.05-3.191l0.003-0.334c0.003-0.3,0.077-0.627,0.219-0.972
				c0.201-0.485,0.621-0.772,1.152-0.785c0.011,0,0.022,0,0.033,0c0.615,0,0.93,0.431,1.115,0.758
				C4.856,4.972,4.91,5.106,4.967,5.25l0.002,0.006l0.346-0.093c0.546-0.146,1.081-0.289,1.613-0.442
				c0.009-0.004,0.024-0.013,0.039-0.025c-0.023-0.079-0.044-0.159-0.066-0.24C6.81,4.107,6.722,3.78,6.539,3.522
				C5.959,2.713,4.844,2.22,3.73,2.22c-0.286,0-0.572,0.032-0.849,0.1c-1.5,0.368-2.797,1.652-2.833,2.804
				c-0.062,2.016-0.064,3.563-0.006,5.016c0.057,1.423,0.807,2.437,2.293,3.1c1.64,0.732,3.915,0.194,4.686-1.773
				C7.018,11.455,6.992,11.38,6.972,11.358z"/>
			<path class="st2" d="M43.282,4.252c-0.223-1.345-1.398-2.292-3.398-2.739c-1.126-0.251-1.797,0.131-2.255,0.781
				c-0.689,0.084-1.318,0.395-1.702,1.124c-0.814,1.543-0.791,3.158-0.311,9.288c0.063-0.018,0.131-0.005,0.207,0.028
				c-0.479-6.119-0.506-7.721,0.284-9.221c0.31-0.588,0.8-0.881,1.373-0.987c-0.233,0.399-0.408,0.87-0.564,1.35
				c-0.009,0.028-0.018,0.058-0.027,0.088c-0.024,0.077-0.046,0.158-0.068,0.243c-0.504,1.95-0.598,5.893-0.372,8.838
				c0.007,0.003,0.014,0.006,0.022,0.009c0.061,0.022,0.125,0.04,0.189,0.057c-0.233-2.956-0.133-7.111,0.394-8.983
				C37.071,4.064,37.09,4,37.11,3.94c0.004-0.013,0.009-0.025,0.013-0.038c0.188-0.572,0.383-1.046,0.617-1.411
				c0.92-0.083,2.002,0.24,2.885,0.563c1.399,0.512,2.195,1.912,1.851,3.257c-0.363,1.418-2.896,4.33-5.132,6.899l-0.046,0.053
				c0.074,0.022,0.143,0.047,0.203,0.078c2.25-2.586,4.798-5.515,5.173-6.98c0.37-1.447-0.48-2.952-1.978-3.5
				c-0.589-0.215-1.736-0.634-2.8-0.589c0.441-0.553,1.026-0.766,1.945-0.561c1.334,0.298,2.978,0.986,3.241,2.573
				c0.286,1.729-0.095,4.322-5.552,9.071c0.064,0.036,0.117,0.08,0.156,0.135C43.197,8.688,43.577,6.031,43.282,4.252z"/>
		</g>
		<g>
			<path class="st1" d="M0.657,26.535v-2.13h0.236v1.929h1.009v0.201H0.657z"/>
			<path class="st1" d="M2.843,24.376c0.522,0,0.832,0.384,0.832,1.094c0,0.711-0.31,1.094-0.832,1.094s-0.832-0.383-0.832-1.094
				C2.011,24.759,2.321,24.376,2.843,24.376z M2.843,26.364c0.375,0,0.596-0.289,0.596-0.894s-0.221-0.894-0.596-0.894
				s-0.596,0.289-0.596,0.894S2.469,26.364,2.843,26.364z"/>
			<path class="st1" d="M3.852,24.405h0.224l0.395,1.699h0.006l0.413-1.699H5.1l0.425,1.699h0.006l0.389-1.699h0.224l-0.504,2.13
				H5.43l-0.437-1.723H4.988l-0.413,1.723H4.365L3.852,24.405z"/>
			<path class="st1" d="M7.422,26.535v-2.13h0.743c0.454,0,0.652,0.26,0.652,0.596c0,0.354-0.245,0.584-0.782,0.584H7.658v0.95
				H7.422z M7.658,25.385h0.401c0.392,0,0.522-0.136,0.522-0.389c0-0.254-0.15-0.389-0.469-0.389H7.658V25.385z"/>
			<path class="st1" d="M9.047,26.535v-2.13h0.684c0.46,0,0.711,0.207,0.711,0.561c0,0.301-0.174,0.472-0.425,0.555l0.451,1.015
				h-0.257l-0.431-0.968H9.283v0.968H9.047z M9.283,25.367h0.428c0.324,0,0.496-0.121,0.496-0.389c0-0.286-0.195-0.372-0.499-0.372
				H9.283V25.367z"/>
			<path class="st1" d="M11.643,24.376c0.522,0,0.832,0.384,0.832,1.094c0,0.711-0.31,1.094-0.832,1.094
				c-0.522,0-0.832-0.383-0.832-1.094C10.811,24.759,11.121,24.376,11.643,24.376z M11.643,26.364c0.375,0,0.596-0.289,0.596-0.894
				s-0.221-0.894-0.596-0.894c-0.375,0-0.596,0.289-0.596,0.894S11.268,26.364,11.643,26.364z"/>
			<path class="st1" d="M13.448,24.606v1.929h-0.236v-1.929h-0.637v-0.201h1.51v0.201H13.448z"/>
			<path class="st1" d="M15.688,24.405v0.201h-1.041v0.714h0.74v0.201h-0.74v0.814h1.1v0.201H14.41v-2.13H15.688z"/>
			<path class="st1" d="M16.502,24.405v2.13h-0.236v-2.13H16.502z"/>
			<path class="st1" d="M17.195,26.535v-2.13h0.339l0.929,1.64h0.012v-1.64h0.212v2.13h-0.195l-1.08-1.9h-0.006v1.9H17.195z"/>
			<path class="st1" d="M20.201,26.535v-2.13h0.684c0.46,0,0.711,0.207,0.711,0.561c0,0.301-0.174,0.472-0.425,0.555l0.451,1.015
				h-0.257l-0.431-0.968h-0.499v0.968H20.201z M20.437,25.367h0.428c0.324,0,0.496-0.121,0.496-0.389
				c0-0.286-0.195-0.372-0.499-0.372h-0.425V25.367z"/>
			<path class="st1" d="M23.293,24.405v0.201h-1.041v0.714h0.74v0.201h-0.74v0.814h1.1v0.201h-1.336v-2.13H23.293z"/>
			<path class="st1" d="M25.128,25.898c-0.094,0.395-0.313,0.667-0.749,0.667c-0.478,0-0.814-0.348-0.814-1.094
				c0-0.693,0.301-1.094,0.814-1.094c0.395,0,0.625,0.23,0.72,0.62L24.88,25.06c-0.077-0.301-0.212-0.484-0.531-0.484
				c-0.307,0-0.549,0.283-0.549,0.894c0,0.617,0.242,0.894,0.596,0.894c0.327,0,0.454-0.248,0.519-0.507L25.128,25.898z"/>
			<path class="st1" d="M25.732,24.405v2.13h-0.236v-2.13H25.732z"/>
			<path class="st1" d="M26.284,26.535v-2.13h0.743c0.454,0,0.652,0.26,0.652,0.596c0,0.354-0.245,0.584-0.782,0.584H26.52v0.95
				H26.284z M26.52,25.385h0.401c0.392,0,0.522-0.136,0.522-0.389c0-0.254-0.15-0.389-0.469-0.389H26.52V25.385z"/>
			<path class="st1" d="M29.269,24.405v0.201h-1.041v0.714h0.74v0.201h-0.74v0.814h1.1v0.201h-1.336v-2.13H29.269z"/>
			<path class="st1" d="M30.738,24.948c-0.053-0.207-0.221-0.372-0.496-0.372c-0.248,0-0.395,0.118-0.398,0.33
				c-0.006,0.466,1.198,0.348,1.198,1.033c0,0.31-0.174,0.625-0.717,0.625c-0.466,0-0.649-0.301-0.761-0.555l0.215-0.077
				c0.086,0.224,0.245,0.431,0.558,0.431c0.313,0,0.469-0.165,0.469-0.384c0-0.543-1.198-0.383-1.198-1.056
				c0-0.307,0.257-0.549,0.64-0.549c0.33,0,0.59,0.174,0.702,0.525L30.738,24.948z"/>
		</g>
	</g>
</g>
</svg>
